<mxfile host="app.diagrams.net" modified="2023-11-29T14:52:57.486Z" agent="Mozilla/5.0 (Windows NT 10.0; Win64; x64) AppleWebKit/537.36 (KHTML, like Gecko) Chrome/119.0.0.0 Safari/537.36" etag="LcK8IX1GGWEGPURcE6Nb" version="22.1.5" type="device">
  <diagram id="C5RBs43oDa-KdzZeNtuy" name="Page-1">
    <mxGraphModel dx="880" dy="478" grid="1" gridSize="10" guides="1" tooltips="1" connect="1" arrows="1" fold="1" page="1" pageScale="1" pageWidth="827" pageHeight="1169" math="0" shadow="0">
      <root>
        <mxCell id="WIyWlLk6GJQsqaUBKTNV-0" />
        <mxCell id="WIyWlLk6GJQsqaUBKTNV-1" parent="WIyWlLk6GJQsqaUBKTNV-0" />
        <mxCell id="WIyWlLk6GJQsqaUBKTNV-2" value="" style="rounded=0;html=1;jettySize=auto;orthogonalLoop=1;fontSize=11;endArrow=block;endFill=0;endSize=8;strokeWidth=1;shadow=0;labelBackgroundColor=none;edgeStyle=orthogonalEdgeStyle;" parent="WIyWlLk6GJQsqaUBKTNV-1" source="WIyWlLk6GJQsqaUBKTNV-3" edge="1">
          <mxGeometry relative="1" as="geometry">
            <mxPoint x="220" y="170" as="targetPoint" />
          </mxGeometry>
        </mxCell>
        <mxCell id="WIyWlLk6GJQsqaUBKTNV-3" value="Klik salah satu row pada tabel yang ingin di edit&amp;nbsp;" style="rounded=1;whiteSpace=wrap;html=1;fontSize=12;glass=0;strokeWidth=1;shadow=0;" parent="WIyWlLk6GJQsqaUBKTNV-1" vertex="1">
          <mxGeometry x="160" y="60" width="120" height="60" as="geometry" />
        </mxCell>
        <mxCell id="6oFa72EdfksZtaTuoUic-4" value="" style="edgeStyle=orthogonalEdgeStyle;rounded=0;orthogonalLoop=1;jettySize=auto;html=1;" edge="1" parent="WIyWlLk6GJQsqaUBKTNV-1" source="6oFa72EdfksZtaTuoUic-1" target="6oFa72EdfksZtaTuoUic-3">
          <mxGeometry relative="1" as="geometry" />
        </mxCell>
        <mxCell id="6oFa72EdfksZtaTuoUic-1" value="Klik button edit" style="rounded=1;whiteSpace=wrap;html=1;" vertex="1" parent="WIyWlLk6GJQsqaUBKTNV-1">
          <mxGeometry x="160" y="160" width="120" height="60" as="geometry" />
        </mxCell>
        <mxCell id="6oFa72EdfksZtaTuoUic-6" value="" style="edgeStyle=orthogonalEdgeStyle;rounded=0;orthogonalLoop=1;jettySize=auto;html=1;" edge="1" parent="WIyWlLk6GJQsqaUBKTNV-1" source="6oFa72EdfksZtaTuoUic-3" target="6oFa72EdfksZtaTuoUic-5">
          <mxGeometry relative="1" as="geometry" />
        </mxCell>
        <mxCell id="6oFa72EdfksZtaTuoUic-3" value="Masukkan nama, nim, alamat yang baru" style="rounded=1;whiteSpace=wrap;html=1;" vertex="1" parent="WIyWlLk6GJQsqaUBKTNV-1">
          <mxGeometry x="160" y="260" width="120" height="60" as="geometry" />
        </mxCell>
        <mxCell id="6oFa72EdfksZtaTuoUic-18" value="" style="edgeStyle=orthogonalEdgeStyle;rounded=0;orthogonalLoop=1;jettySize=auto;html=1;entryX=0.5;entryY=0;entryDx=0;entryDy=0;" edge="1" parent="WIyWlLk6GJQsqaUBKTNV-1" source="6oFa72EdfksZtaTuoUic-5" target="6oFa72EdfksZtaTuoUic-22">
          <mxGeometry relative="1" as="geometry">
            <mxPoint x="220" y="490" as="targetPoint" />
          </mxGeometry>
        </mxCell>
        <mxCell id="6oFa72EdfksZtaTuoUic-20" value="False" style="edgeLabel;html=1;align=center;verticalAlign=middle;resizable=0;points=[];" vertex="1" connectable="0" parent="6oFa72EdfksZtaTuoUic-18">
          <mxGeometry x="-0.1" y="1" relative="1" as="geometry">
            <mxPoint as="offset" />
          </mxGeometry>
        </mxCell>
        <mxCell id="6oFa72EdfksZtaTuoUic-5" value="Jika nama baru diisi" style="rhombus;whiteSpace=wrap;html=1;rounded=1;" vertex="1" parent="WIyWlLk6GJQsqaUBKTNV-1">
          <mxGeometry x="160" y="360" width="120" height="80" as="geometry" />
        </mxCell>
        <mxCell id="6oFa72EdfksZtaTuoUic-7" value="update nama berdasarkan id" style="whiteSpace=wrap;html=1;rounded=1;" vertex="1" parent="WIyWlLk6GJQsqaUBKTNV-1">
          <mxGeometry x="340" y="370" width="120" height="60" as="geometry" />
        </mxCell>
        <mxCell id="6oFa72EdfksZtaTuoUic-15" value="" style="endArrow=classic;html=1;rounded=0;exitX=1;exitY=0.5;exitDx=0;exitDy=0;entryX=0;entryY=0.5;entryDx=0;entryDy=0;" edge="1" parent="WIyWlLk6GJQsqaUBKTNV-1" source="6oFa72EdfksZtaTuoUic-5" target="6oFa72EdfksZtaTuoUic-7">
          <mxGeometry width="50" height="50" relative="1" as="geometry">
            <mxPoint x="390" y="480" as="sourcePoint" />
            <mxPoint x="440" y="430" as="targetPoint" />
          </mxGeometry>
        </mxCell>
        <mxCell id="6oFa72EdfksZtaTuoUic-16" value="True" style="edgeLabel;html=1;align=center;verticalAlign=middle;resizable=0;points=[];" vertex="1" connectable="0" parent="6oFa72EdfksZtaTuoUic-15">
          <mxGeometry x="-0.1" y="-1" relative="1" as="geometry">
            <mxPoint as="offset" />
          </mxGeometry>
        </mxCell>
        <mxCell id="6oFa72EdfksZtaTuoUic-26" value="" style="edgeStyle=orthogonalEdgeStyle;rounded=0;orthogonalLoop=1;jettySize=auto;html=1;" edge="1" parent="WIyWlLk6GJQsqaUBKTNV-1" source="6oFa72EdfksZtaTuoUic-17" target="6oFa72EdfksZtaTuoUic-21">
          <mxGeometry relative="1" as="geometry" />
        </mxCell>
        <mxCell id="6oFa72EdfksZtaTuoUic-31" value="True" style="edgeLabel;html=1;align=center;verticalAlign=middle;resizable=0;points=[];" vertex="1" connectable="0" parent="6oFa72EdfksZtaTuoUic-26">
          <mxGeometry x="-0.2" y="-2" relative="1" as="geometry">
            <mxPoint as="offset" />
          </mxGeometry>
        </mxCell>
        <mxCell id="6oFa72EdfksZtaTuoUic-17" value="Jika nim baru diiisi" style="rhombus;whiteSpace=wrap;html=1;rounded=1;" vertex="1" parent="WIyWlLk6GJQsqaUBKTNV-1">
          <mxGeometry x="160" y="560" width="120" height="80" as="geometry" />
        </mxCell>
        <mxCell id="6oFa72EdfksZtaTuoUic-19" value="" style="endArrow=classic;html=1;rounded=0;exitX=0.5;exitY=1;exitDx=0;exitDy=0;entryX=1;entryY=0.5;entryDx=0;entryDy=0;" edge="1" parent="WIyWlLk6GJQsqaUBKTNV-1" source="6oFa72EdfksZtaTuoUic-7" target="6oFa72EdfksZtaTuoUic-22">
          <mxGeometry width="50" height="50" relative="1" as="geometry">
            <mxPoint x="390" y="480" as="sourcePoint" />
            <mxPoint x="230" y="520" as="targetPoint" />
            <Array as="points">
              <mxPoint x="400" y="500" />
            </Array>
          </mxGeometry>
        </mxCell>
        <mxCell id="6oFa72EdfksZtaTuoUic-21" value="update nama berdasarkan id" style="whiteSpace=wrap;html=1;rounded=1;" vertex="1" parent="WIyWlLk6GJQsqaUBKTNV-1">
          <mxGeometry x="340" y="570" width="120" height="60" as="geometry" />
        </mxCell>
        <mxCell id="6oFa72EdfksZtaTuoUic-22" value="" style="ellipse;whiteSpace=wrap;html=1;aspect=fixed;" vertex="1" parent="WIyWlLk6GJQsqaUBKTNV-1">
          <mxGeometry x="210" y="490" width="20" height="20" as="geometry" />
        </mxCell>
        <mxCell id="6oFa72EdfksZtaTuoUic-25" value="" style="endArrow=classic;html=1;rounded=0;exitX=0.5;exitY=1;exitDx=0;exitDy=0;" edge="1" parent="WIyWlLk6GJQsqaUBKTNV-1" source="6oFa72EdfksZtaTuoUic-22" target="6oFa72EdfksZtaTuoUic-17">
          <mxGeometry width="50" height="50" relative="1" as="geometry">
            <mxPoint x="390" y="580" as="sourcePoint" />
            <mxPoint x="440" y="530" as="targetPoint" />
          </mxGeometry>
        </mxCell>
        <mxCell id="6oFa72EdfksZtaTuoUic-35" value="" style="edgeStyle=orthogonalEdgeStyle;rounded=0;orthogonalLoop=1;jettySize=auto;html=1;" edge="1" parent="WIyWlLk6GJQsqaUBKTNV-1" source="6oFa72EdfksZtaTuoUic-27" target="6oFa72EdfksZtaTuoUic-33">
          <mxGeometry relative="1" as="geometry" />
        </mxCell>
        <mxCell id="6oFa72EdfksZtaTuoUic-27" value="" style="ellipse;whiteSpace=wrap;html=1;aspect=fixed;" vertex="1" parent="WIyWlLk6GJQsqaUBKTNV-1">
          <mxGeometry x="210" y="690" width="20" height="20" as="geometry" />
        </mxCell>
        <mxCell id="6oFa72EdfksZtaTuoUic-29" value="" style="endArrow=classic;html=1;rounded=0;exitX=0.5;exitY=1;exitDx=0;exitDy=0;entryX=0.5;entryY=0;entryDx=0;entryDy=0;" edge="1" parent="WIyWlLk6GJQsqaUBKTNV-1" source="6oFa72EdfksZtaTuoUic-17" target="6oFa72EdfksZtaTuoUic-27">
          <mxGeometry width="50" height="50" relative="1" as="geometry">
            <mxPoint x="390" y="580" as="sourcePoint" />
            <mxPoint x="440" y="530" as="targetPoint" />
          </mxGeometry>
        </mxCell>
        <mxCell id="6oFa72EdfksZtaTuoUic-32" value="False" style="edgeLabel;html=1;align=center;verticalAlign=middle;resizable=0;points=[];" vertex="1" connectable="0" parent="6oFa72EdfksZtaTuoUic-29">
          <mxGeometry x="-0.36" y="-1" relative="1" as="geometry">
            <mxPoint as="offset" />
          </mxGeometry>
        </mxCell>
        <mxCell id="6oFa72EdfksZtaTuoUic-30" value="" style="endArrow=classic;html=1;rounded=0;exitX=0.5;exitY=1;exitDx=0;exitDy=0;entryX=1;entryY=0.5;entryDx=0;entryDy=0;" edge="1" parent="WIyWlLk6GJQsqaUBKTNV-1" source="6oFa72EdfksZtaTuoUic-21" target="6oFa72EdfksZtaTuoUic-27">
          <mxGeometry width="50" height="50" relative="1" as="geometry">
            <mxPoint x="320" y="700" as="sourcePoint" />
            <mxPoint x="370" y="650" as="targetPoint" />
            <Array as="points">
              <mxPoint x="400" y="700" />
            </Array>
          </mxGeometry>
        </mxCell>
        <mxCell id="6oFa72EdfksZtaTuoUic-37" value="" style="edgeStyle=orthogonalEdgeStyle;rounded=0;orthogonalLoop=1;jettySize=auto;html=1;" edge="1" parent="WIyWlLk6GJQsqaUBKTNV-1" source="6oFa72EdfksZtaTuoUic-33" target="6oFa72EdfksZtaTuoUic-34">
          <mxGeometry relative="1" as="geometry" />
        </mxCell>
        <mxCell id="6oFa72EdfksZtaTuoUic-40" value="True" style="edgeLabel;html=1;align=center;verticalAlign=middle;resizable=0;points=[];" vertex="1" connectable="0" parent="6oFa72EdfksZtaTuoUic-37">
          <mxGeometry x="-0.2667" relative="1" as="geometry">
            <mxPoint as="offset" />
          </mxGeometry>
        </mxCell>
        <mxCell id="6oFa72EdfksZtaTuoUic-38" value="" style="edgeStyle=orthogonalEdgeStyle;rounded=0;orthogonalLoop=1;jettySize=auto;html=1;" edge="1" parent="WIyWlLk6GJQsqaUBKTNV-1" source="6oFa72EdfksZtaTuoUic-33" target="6oFa72EdfksZtaTuoUic-36">
          <mxGeometry relative="1" as="geometry" />
        </mxCell>
        <mxCell id="6oFa72EdfksZtaTuoUic-41" value="False" style="edgeLabel;html=1;align=center;verticalAlign=middle;resizable=0;points=[];" vertex="1" connectable="0" parent="6oFa72EdfksZtaTuoUic-38">
          <mxGeometry x="-0.04" y="2" relative="1" as="geometry">
            <mxPoint as="offset" />
          </mxGeometry>
        </mxCell>
        <mxCell id="6oFa72EdfksZtaTuoUic-33" value="Jika alamat baru diiisi" style="rhombus;whiteSpace=wrap;html=1;rounded=1;" vertex="1" parent="WIyWlLk6GJQsqaUBKTNV-1">
          <mxGeometry x="160" y="760" width="120" height="80" as="geometry" />
        </mxCell>
        <mxCell id="6oFa72EdfksZtaTuoUic-34" value="update nama berdasarkan id" style="whiteSpace=wrap;html=1;rounded=1;" vertex="1" parent="WIyWlLk6GJQsqaUBKTNV-1">
          <mxGeometry x="340" y="770" width="120" height="60" as="geometry" />
        </mxCell>
        <mxCell id="6oFa72EdfksZtaTuoUic-43" value="" style="edgeStyle=orthogonalEdgeStyle;rounded=0;orthogonalLoop=1;jettySize=auto;html=1;" edge="1" parent="WIyWlLk6GJQsqaUBKTNV-1" source="6oFa72EdfksZtaTuoUic-36" target="6oFa72EdfksZtaTuoUic-42">
          <mxGeometry relative="1" as="geometry" />
        </mxCell>
        <mxCell id="6oFa72EdfksZtaTuoUic-36" value="" style="ellipse;whiteSpace=wrap;html=1;aspect=fixed;" vertex="1" parent="WIyWlLk6GJQsqaUBKTNV-1">
          <mxGeometry x="210" y="890" width="20" height="20" as="geometry" />
        </mxCell>
        <mxCell id="6oFa72EdfksZtaTuoUic-39" value="" style="endArrow=classic;html=1;rounded=0;exitX=0.5;exitY=1;exitDx=0;exitDy=0;entryX=1;entryY=0.5;entryDx=0;entryDy=0;" edge="1" parent="WIyWlLk6GJQsqaUBKTNV-1" source="6oFa72EdfksZtaTuoUic-34" target="6oFa72EdfksZtaTuoUic-36">
          <mxGeometry width="50" height="50" relative="1" as="geometry">
            <mxPoint x="370" y="930" as="sourcePoint" />
            <mxPoint x="450" y="910" as="targetPoint" />
            <Array as="points">
              <mxPoint x="400" y="900" />
            </Array>
          </mxGeometry>
        </mxCell>
        <mxCell id="6oFa72EdfksZtaTuoUic-42" value="Tampilkan tabel data terbaru" style="rounded=1;whiteSpace=wrap;html=1;" vertex="1" parent="WIyWlLk6GJQsqaUBKTNV-1">
          <mxGeometry x="160" y="970" width="120" height="60" as="geometry" />
        </mxCell>
      </root>
    </mxGraphModel>
  </diagram>
</mxfile>
